<mxfile host="app.diagrams.net" modified="2023-01-26T15:52:23.322Z" agent="5.0 (Windows NT 10.0; Win64; x64) AppleWebKit/537.36 (KHTML, like Gecko) Chrome/109.0.0.0 Safari/537.36" etag="luaT8gR2jikLAafjx52z" version="20.8.11" type="github">
  <diagram name="Страница 1" id="NBx043L_5w2StL78OvUL">
    <mxGraphModel dx="1877" dy="541" grid="1" gridSize="10" guides="1" tooltips="1" connect="1" arrows="1" fold="1" page="1" pageScale="1" pageWidth="827" pageHeight="1169" math="0" shadow="0">
      <root>
        <mxCell id="0" />
        <mxCell id="1" parent="0" />
        <mxCell id="bAHlhpzNJxMVu7dpJOnl-43" value="Entity Listener" style="swimlane;whiteSpace=wrap;html=1;fillColor=#fff2cc;strokeColor=#d6b656;" parent="1" vertex="1">
          <mxGeometry x="310" y="70" width="150" height="180" as="geometry">
            <mxRectangle x="300" y="440" width="120" height="30" as="alternateBounds" />
          </mxGeometry>
        </mxCell>
        <mxCell id="bAHlhpzNJxMVu7dpJOnl-44" value="OnInit()" style="whiteSpace=wrap;html=1;" parent="bAHlhpzNJxMVu7dpJOnl-43" vertex="1">
          <mxGeometry x="14" y="30" width="120" height="60" as="geometry" />
        </mxCell>
        <mxCell id="bAHlhpzNJxMVu7dpJOnl-46" value="OnDestroy()" style="whiteSpace=wrap;html=1;" parent="bAHlhpzNJxMVu7dpJOnl-43" vertex="1">
          <mxGeometry x="14" y="110" width="120" height="60" as="geometry" />
        </mxCell>
        <mxCell id="bAHlhpzNJxMVu7dpJOnl-59" value="World" style="swimlane;whiteSpace=wrap;html=1;fillColor=#dae8fc;strokeColor=#6c8ebf;" parent="1" vertex="1">
          <mxGeometry x="-390" y="30" width="670" height="530" as="geometry">
            <mxRectangle x="30" y="440" width="70" height="30" as="alternateBounds" />
          </mxGeometry>
        </mxCell>
        <mxCell id="bAHlhpzNJxMVu7dpJOnl-96" style="edgeStyle=none;rounded=0;orthogonalLoop=1;jettySize=auto;html=1;elbow=vertical;" parent="bAHlhpzNJxMVu7dpJOnl-59" source="bAHlhpzNJxMVu7dpJOnl-95" target="bAHlhpzNJxMVu7dpJOnl-60" edge="1">
          <mxGeometry relative="1" as="geometry" />
        </mxCell>
        <mxCell id="bAHlhpzNJxMVu7dpJOnl-95" value=".entity" style="whiteSpace=wrap;html=1;" parent="bAHlhpzNJxMVu7dpJOnl-59" vertex="1">
          <mxGeometry x="330" y="70" width="120" height="60" as="geometry" />
        </mxCell>
        <mxCell id="bAHlhpzNJxMVu7dpJOnl-101" value="Entities" style="swimlane;whiteSpace=wrap;html=1;startSize=23;fillColor=#e1d5e7;strokeColor=#9673a6;" parent="bAHlhpzNJxMVu7dpJOnl-59" vertex="1">
          <mxGeometry x="460" y="30" width="200" height="200" as="geometry" />
        </mxCell>
        <mxCell id="bAHlhpzNJxMVu7dpJOnl-64" value="DestroyEntity()" style="whiteSpace=wrap;html=1;" parent="bAHlhpzNJxMVu7dpJOnl-101" vertex="1">
          <mxGeometry x="70" y="120" width="120" height="60" as="geometry" />
        </mxCell>
        <mxCell id="bAHlhpzNJxMVu7dpJOnl-60" value="InitEntity(): Entity" style="whiteSpace=wrap;html=1;" parent="bAHlhpzNJxMVu7dpJOnl-101" vertex="1">
          <mxGeometry x="70" y="40" width="120" height="60" as="geometry" />
        </mxCell>
        <mxCell id="bAHlhpzNJxMVu7dpJOnl-114" style="edgeStyle=orthogonalEdgeStyle;rounded=0;orthogonalLoop=1;jettySize=auto;html=1;entryX=0;entryY=0.5;entryDx=0;entryDy=0;" parent="bAHlhpzNJxMVu7dpJOnl-59" source="bAHlhpzNJxMVu7dpJOnl-111" target="O8vUfsn8t2cKlNHUyuQd-1" edge="1">
          <mxGeometry relative="1" as="geometry" />
        </mxCell>
        <mxCell id="bAHlhpzNJxMVu7dpJOnl-117" value=".update()" style="edgeLabel;html=1;align=center;verticalAlign=middle;resizable=0;points=[];" parent="bAHlhpzNJxMVu7dpJOnl-114" vertex="1" connectable="0">
          <mxGeometry x="-0.2862" y="1" relative="1" as="geometry">
            <mxPoint as="offset" />
          </mxGeometry>
        </mxCell>
        <mxCell id="bAHlhpzNJxMVu7dpJOnl-111" value="update()" style="whiteSpace=wrap;html=1;" parent="bAHlhpzNJxMVu7dpJOnl-59" vertex="1">
          <mxGeometry x="30" y="240" width="120" height="60" as="geometry" />
        </mxCell>
        <mxCell id="q2OMOKiFZYzo7tYUAPUT-1" value="Time" style="swimlane;whiteSpace=wrap;html=1;fillColor=#e1d5e7;strokeColor=#9673a6;" parent="bAHlhpzNJxMVu7dpJOnl-59" vertex="1">
          <mxGeometry x="30" y="130" width="140" height="100" as="geometry" />
        </mxCell>
        <mxCell id="q2OMOKiFZYzo7tYUAPUT-2" value="delta" style="rounded=0;whiteSpace=wrap;html=1;" parent="q2OMOKiFZYzo7tYUAPUT-1" vertex="1">
          <mxGeometry x="10" y="30" width="120" height="60" as="geometry" />
        </mxCell>
        <mxCell id="q2OMOKiFZYzo7tYUAPUT-3" style="edgeStyle=orthogonalEdgeStyle;rounded=0;orthogonalLoop=1;jettySize=auto;html=1;entryX=0;entryY=0.5;entryDx=0;entryDy=0;exitX=0;exitY=0.5;exitDx=0;exitDy=0;" parent="bAHlhpzNJxMVu7dpJOnl-59" source="q2OMOKiFZYzo7tYUAPUT-2" target="bAHlhpzNJxMVu7dpJOnl-111" edge="1">
          <mxGeometry relative="1" as="geometry" />
        </mxCell>
        <mxCell id="q2OMOKiFZYzo7tYUAPUT-4" value="updates every update" style="edgeLabel;html=1;align=center;verticalAlign=middle;resizable=0;points=[];" parent="q2OMOKiFZYzo7tYUAPUT-3" vertex="1" connectable="0">
          <mxGeometry x="-0.0943" relative="1" as="geometry">
            <mxPoint as="offset" />
          </mxGeometry>
        </mxCell>
        <mxCell id="O8vUfsn8t2cKlNHUyuQd-1" value="Systems" style="swimlane;whiteSpace=wrap;html=1;fillColor=#e1d5e7;strokeColor=#9673a6;" vertex="1" parent="bAHlhpzNJxMVu7dpJOnl-59">
          <mxGeometry x="400" y="250" width="160" height="270" as="geometry" />
        </mxCell>
        <mxCell id="O8vUfsn8t2cKlNHUyuQd-2" value="add(System)" style="rounded=0;whiteSpace=wrap;html=1;" vertex="1" parent="O8vUfsn8t2cKlNHUyuQd-1">
          <mxGeometry x="10" y="30" width="120" height="60" as="geometry" />
        </mxCell>
        <mxCell id="O8vUfsn8t2cKlNHUyuQd-4" value="pause(System)" style="whiteSpace=wrap;html=1;" vertex="1" parent="O8vUfsn8t2cKlNHUyuQd-1">
          <mxGeometry x="10" y="100" width="120" height="60" as="geometry" />
        </mxCell>
        <mxCell id="O8vUfsn8t2cKlNHUyuQd-5" value="resume(System)" style="whiteSpace=wrap;html=1;" vertex="1" parent="O8vUfsn8t2cKlNHUyuQd-1">
          <mxGeometry x="10" y="170" width="120" height="60" as="geometry" />
        </mxCell>
        <mxCell id="bAHlhpzNJxMVu7dpJOnl-61" style="edgeStyle=none;rounded=0;orthogonalLoop=1;jettySize=auto;html=1;entryX=0;entryY=0.5;entryDx=0;entryDy=0;elbow=vertical;" parent="1" source="bAHlhpzNJxMVu7dpJOnl-60" target="bAHlhpzNJxMVu7dpJOnl-44" edge="1">
          <mxGeometry relative="1" as="geometry" />
        </mxCell>
        <mxCell id="bAHlhpzNJxMVu7dpJOnl-63" value="event" style="edgeLabel;html=1;align=center;verticalAlign=middle;resizable=0;points=[];" parent="bAHlhpzNJxMVu7dpJOnl-61" vertex="1" connectable="0">
          <mxGeometry x="0.1233" relative="1" as="geometry">
            <mxPoint x="-9" as="offset" />
          </mxGeometry>
        </mxCell>
        <mxCell id="bAHlhpzNJxMVu7dpJOnl-65" style="edgeStyle=none;rounded=0;orthogonalLoop=1;jettySize=auto;html=1;entryX=0;entryY=0.5;entryDx=0;entryDy=0;elbow=vertical;" parent="1" source="bAHlhpzNJxMVu7dpJOnl-64" target="bAHlhpzNJxMVu7dpJOnl-46" edge="1">
          <mxGeometry relative="1" as="geometry" />
        </mxCell>
        <mxCell id="bAHlhpzNJxMVu7dpJOnl-66" value="event" style="edgeLabel;html=1;align=center;verticalAlign=middle;resizable=0;points=[];" parent="bAHlhpzNJxMVu7dpJOnl-65" vertex="1" connectable="0">
          <mxGeometry x="0.2836" y="-2" relative="1" as="geometry">
            <mxPoint x="-12" y="-2" as="offset" />
          </mxGeometry>
        </mxCell>
        <mxCell id="bAHlhpzNJxMVu7dpJOnl-68" value="System" style="swimlane;whiteSpace=wrap;html=1;fillColor=#dae8fc;strokeColor=#6c8ebf;" parent="1" vertex="1">
          <mxGeometry x="810" y="10" width="160" height="380" as="geometry">
            <mxRectangle x="470" y="440" width="90" height="30" as="alternateBounds" />
          </mxGeometry>
        </mxCell>
        <mxCell id="bAHlhpzNJxMVu7dpJOnl-120" value="group" style="whiteSpace=wrap;html=1;" parent="bAHlhpzNJxMVu7dpJOnl-68" vertex="1">
          <mxGeometry x="20" y="40" width="120" height="60" as="geometry" />
        </mxCell>
        <mxCell id="bAHlhpzNJxMVu7dpJOnl-134" value="onInit(Entity)" style="whiteSpace=wrap;html=1;" parent="bAHlhpzNJxMVu7dpJOnl-68" vertex="1">
          <mxGeometry x="20" y="150" width="120" height="60" as="geometry" />
        </mxCell>
        <mxCell id="bAHlhpzNJxMVu7dpJOnl-85" value="onUpdate(Entity)" style="whiteSpace=wrap;html=1;" parent="bAHlhpzNJxMVu7dpJOnl-68" vertex="1">
          <mxGeometry x="20" y="290" width="120" height="60" as="geometry" />
        </mxCell>
        <mxCell id="bAHlhpzNJxMVu7dpJOnl-135" value="onDestroy(Entity)" style="whiteSpace=wrap;html=1;" parent="bAHlhpzNJxMVu7dpJOnl-68" vertex="1">
          <mxGeometry x="20" y="220" width="120" height="60" as="geometry" />
        </mxCell>
        <mxCell id="bAHlhpzNJxMVu7dpJOnl-87" value="Entity = int" style="swimlane;whiteSpace=wrap;html=1;startSize=23;fillColor=#e1d5e7;strokeColor=#9673a6;" parent="1" vertex="1">
          <mxGeometry x="510" y="330" width="155" height="275" as="geometry" />
        </mxCell>
        <mxCell id="bAHlhpzNJxMVu7dpJOnl-89" value="components" style="whiteSpace=wrap;html=1;" parent="bAHlhpzNJxMVu7dpJOnl-87" vertex="1">
          <mxGeometry x="20" y="40" width="120" height="60" as="geometry" />
        </mxCell>
        <mxCell id="bAHlhpzNJxMVu7dpJOnl-94" style="edgeStyle=none;rounded=0;orthogonalLoop=1;jettySize=auto;html=1;entryX=0.5;entryY=1;entryDx=0;entryDy=0;elbow=vertical;" parent="bAHlhpzNJxMVu7dpJOnl-87" source="bAHlhpzNJxMVu7dpJOnl-93" target="bAHlhpzNJxMVu7dpJOnl-89" edge="1">
          <mxGeometry relative="1" as="geometry" />
        </mxCell>
        <mxCell id="bAHlhpzNJxMVu7dpJOnl-93" value="getComponent&amp;lt;T&amp;gt;()" style="whiteSpace=wrap;html=1;" parent="bAHlhpzNJxMVu7dpJOnl-87" vertex="1">
          <mxGeometry x="20" y="120" width="120" height="60" as="geometry" />
        </mxCell>
        <mxCell id="bAHlhpzNJxMVu7dpJOnl-104" value="destroy()" style="whiteSpace=wrap;html=1;" parent="bAHlhpzNJxMVu7dpJOnl-87" vertex="1">
          <mxGeometry x="20" y="195" width="120" height="60" as="geometry" />
        </mxCell>
        <mxCell id="bAHlhpzNJxMVu7dpJOnl-88" value="IComponent" style="swimlane;whiteSpace=wrap;html=1;fillColor=#d5e8d4;strokeColor=#82b366;" parent="1" vertex="1" collapsed="1">
          <mxGeometry x="700" y="385" width="110" height="30" as="geometry">
            <mxRectangle x="340" y="430" width="200" height="200" as="alternateBounds" />
          </mxGeometry>
        </mxCell>
        <mxCell id="bAHlhpzNJxMVu7dpJOnl-91" style="edgeStyle=orthogonalEdgeStyle;rounded=0;orthogonalLoop=1;jettySize=auto;html=1;entryX=0;entryY=0.5;entryDx=0;entryDy=0;elbow=vertical;shape=link;exitX=1;exitY=0.5;exitDx=0;exitDy=0;" parent="1" source="bAHlhpzNJxMVu7dpJOnl-89" target="bAHlhpzNJxMVu7dpJOnl-88" edge="1">
          <mxGeometry relative="1" as="geometry" />
        </mxCell>
        <mxCell id="bAHlhpzNJxMVu7dpJOnl-92" value="Array" style="edgeLabel;html=1;align=center;verticalAlign=middle;resizable=0;points=[];" parent="bAHlhpzNJxMVu7dpJOnl-91" vertex="1" connectable="0">
          <mxGeometry x="0.0879" y="-2" relative="1" as="geometry">
            <mxPoint x="-13" y="-4" as="offset" />
          </mxGeometry>
        </mxCell>
        <mxCell id="bAHlhpzNJxMVu7dpJOnl-98" style="edgeStyle=orthogonalEdgeStyle;rounded=0;orthogonalLoop=1;jettySize=auto;html=1;entryX=0.5;entryY=0;entryDx=0;entryDy=0;elbow=vertical;" parent="1" source="bAHlhpzNJxMVu7dpJOnl-74" target="bAHlhpzNJxMVu7dpJOnl-88" edge="1">
          <mxGeometry relative="1" as="geometry" />
        </mxCell>
        <mxCell id="bAHlhpzNJxMVu7dpJOnl-107" style="rounded=0;orthogonalLoop=1;jettySize=auto;html=1;entryX=0.5;entryY=1;entryDx=0;entryDy=0;edgeStyle=orthogonalEdgeStyle;" parent="1" source="bAHlhpzNJxMVu7dpJOnl-104" target="bAHlhpzNJxMVu7dpJOnl-64" edge="1">
          <mxGeometry relative="1" as="geometry" />
        </mxCell>
        <mxCell id="bAHlhpzNJxMVu7dpJOnl-72" value="Group" style="swimlane;whiteSpace=wrap;html=1;startSize=23;fillColor=#e1d5e7;strokeColor=#9673a6;" parent="1" vertex="1">
          <mxGeometry x="510" y="30" width="140" height="270" as="geometry">
            <mxRectangle x="10" y="30" width="80" height="30" as="alternateBounds" />
          </mxGeometry>
        </mxCell>
        <mxCell id="bAHlhpzNJxMVu7dpJOnl-74" value="all, none, any" style="shape=document;whiteSpace=wrap;html=1;boundedLbl=1;" parent="bAHlhpzNJxMVu7dpJOnl-72" vertex="1">
          <mxGeometry x="10" y="40" width="120" height="40" as="geometry" />
        </mxCell>
        <mxCell id="bAHlhpzNJxMVu7dpJOnl-99" style="edgeStyle=none;rounded=0;orthogonalLoop=1;jettySize=auto;html=1;elbow=vertical;" parent="bAHlhpzNJxMVu7dpJOnl-72" source="bAHlhpzNJxMVu7dpJOnl-76" target="bAHlhpzNJxMVu7dpJOnl-74" edge="1">
          <mxGeometry relative="1" as="geometry" />
        </mxCell>
        <mxCell id="bAHlhpzNJxMVu7dpJOnl-76" value="add(Entity)" style="whiteSpace=wrap;html=1;" parent="bAHlhpzNJxMVu7dpJOnl-72" vertex="1">
          <mxGeometry x="10" y="130" width="120" height="60" as="geometry" />
        </mxCell>
        <mxCell id="bAHlhpzNJxMVu7dpJOnl-77" value="remove(Entity)" style="whiteSpace=wrap;html=1;" parent="bAHlhpzNJxMVu7dpJOnl-72" vertex="1">
          <mxGeometry x="10" y="200" width="120" height="60" as="geometry" />
        </mxCell>
        <mxCell id="bAHlhpzNJxMVu7dpJOnl-78" style="edgeStyle=orthogonalEdgeStyle;rounded=0;orthogonalLoop=1;jettySize=auto;html=1;entryX=0;entryY=0.5;entryDx=0;entryDy=0;elbow=vertical;" parent="1" source="bAHlhpzNJxMVu7dpJOnl-44" target="bAHlhpzNJxMVu7dpJOnl-76" edge="1">
          <mxGeometry relative="1" as="geometry" />
        </mxCell>
        <mxCell id="bAHlhpzNJxMVu7dpJOnl-80" value="subscription" style="edgeLabel;html=1;align=center;verticalAlign=middle;resizable=0;points=[];" parent="bAHlhpzNJxMVu7dpJOnl-78" vertex="1" connectable="0">
          <mxGeometry x="0.3911" y="-2" relative="1" as="geometry">
            <mxPoint as="offset" />
          </mxGeometry>
        </mxCell>
        <mxCell id="bAHlhpzNJxMVu7dpJOnl-79" style="edgeStyle=orthogonalEdgeStyle;rounded=0;orthogonalLoop=1;jettySize=auto;html=1;entryX=0;entryY=0.5;entryDx=0;entryDy=0;elbow=vertical;" parent="1" source="bAHlhpzNJxMVu7dpJOnl-46" target="bAHlhpzNJxMVu7dpJOnl-77" edge="1">
          <mxGeometry relative="1" as="geometry" />
        </mxCell>
        <mxCell id="bAHlhpzNJxMVu7dpJOnl-81" value="subscription" style="edgeLabel;html=1;align=center;verticalAlign=middle;resizable=0;points=[];" parent="bAHlhpzNJxMVu7dpJOnl-79" vertex="1" connectable="0">
          <mxGeometry x="0.1598" y="2" relative="1" as="geometry">
            <mxPoint as="offset" />
          </mxGeometry>
        </mxCell>
        <mxCell id="bAHlhpzNJxMVu7dpJOnl-121" style="edgeStyle=orthogonalEdgeStyle;rounded=0;orthogonalLoop=1;jettySize=auto;html=1;entryX=1;entryY=0.5;entryDx=0;entryDy=0;shape=link;" parent="1" source="bAHlhpzNJxMVu7dpJOnl-120" target="bAHlhpzNJxMVu7dpJOnl-72" edge="1">
          <mxGeometry relative="1" as="geometry" />
        </mxCell>
        <mxCell id="bAHlhpzNJxMVu7dpJOnl-137" style="edgeStyle=orthogonalEdgeStyle;rounded=0;orthogonalLoop=1;jettySize=auto;html=1;entryX=0;entryY=0.5;entryDx=0;entryDy=0;exitX=1;exitY=0.5;exitDx=0;exitDy=0;" parent="1" source="O8vUfsn8t2cKlNHUyuQd-1" target="bAHlhpzNJxMVu7dpJOnl-85" edge="1">
          <mxGeometry relative="1" as="geometry" />
        </mxCell>
        <mxCell id="bAHlhpzNJxMVu7dpJOnl-138" style="edgeStyle=orthogonalEdgeStyle;rounded=0;orthogonalLoop=1;jettySize=auto;html=1;entryX=0;entryY=0.5;entryDx=0;entryDy=0;" parent="1" source="bAHlhpzNJxMVu7dpJOnl-76" target="bAHlhpzNJxMVu7dpJOnl-134" edge="1">
          <mxGeometry relative="1" as="geometry" />
        </mxCell>
        <mxCell id="bAHlhpzNJxMVu7dpJOnl-139" style="edgeStyle=orthogonalEdgeStyle;rounded=0;orthogonalLoop=1;jettySize=auto;html=1;entryX=0;entryY=0.5;entryDx=0;entryDy=0;" parent="1" source="bAHlhpzNJxMVu7dpJOnl-77" target="bAHlhpzNJxMVu7dpJOnl-135" edge="1">
          <mxGeometry relative="1" as="geometry" />
        </mxCell>
      </root>
    </mxGraphModel>
  </diagram>
</mxfile>
